<svg width="33" height="33" viewBox="0 0 33 33" fill="none" xmlns="http://www.w3.org/2000/svg">
<path opacity="0.987" fill-rule="evenodd" clip-rule="evenodd" d="M14.8686 2.18829C16.3639 2.02122 17.2488 2.02122 18.8554 2.18829C21.6995 2.60923 24.336 3.92385 26.3836 5.94204C24.9999 7.24994 23.6344 8.57694 22.2874 9.92266C19.7079 7.73641 16.8287 7.23179 13.6497 8.40879C11.3177 9.48129 9.69382 11.2193 8.77807 13.6228C7.28161 12.5087 5.80463 11.3686 4.34782 10.2032C4.24658 10.1499 4.13095 10.1304 4.01782 10.1475C6.33195 5.6856 9.9482 3.03185 14.8666 2.18622" fill="#F44336"/>
<path opacity="0.997" fill-rule="evenodd" clip-rule="evenodd" d="M4.01366 10.1474C4.13053 10.1296 4.24122 10.1481 4.34572 10.2031C5.80253 11.3686 7.2795 12.5087 8.77597 13.6228C8.54048 14.5593 8.39204 15.5155 8.33253 16.4793C8.38341 17.4116 8.53122 18.3266 8.77597 19.2245L4.12503 22.9267C2.09966 18.6944 2.06253 14.4347 4.01366 10.1474Z" fill="#FFC107"/>
<path opacity="0.999" fill-rule="evenodd" clip-rule="evenodd" d="M26.1629 27.4106C24.7147 26.1335 23.1987 24.9355 21.6213 23.8219C23.2025 22.7054 24.1623 21.1736 24.5005 19.2266H16.7517V13.8456C21.2205 13.8085 25.6871 13.8463 30.1518 13.959C30.9988 18.5584 30.0205 22.7054 27.2168 26.4C26.8835 26.7544 26.5303 27.0917 26.1629 27.4106Z" fill="#448AFF"/>
<path opacity="0.993" fill-rule="evenodd" clip-rule="evenodd" d="M8.77594 19.2266C10.4672 23.4299 13.5678 25.3921 18.0778 25.1129C19.3438 24.9664 20.5577 24.5241 21.6212 23.8218C23.1997 24.9383 24.7136 26.1346 26.1628 27.4106C23.8665 29.474 20.9387 30.6983 17.8571 30.8838C17.157 30.9398 16.4535 30.9398 15.7534 30.8838C10.5036 30.2651 6.6275 27.6127 4.125 22.9267L8.77594 19.2266Z" fill="#43A047"/>
</svg>
