<svg width="35" height="35" viewBox="0 0 35 35" fill="none" xmlns="http://www.w3.org/2000/svg">
<path d="M17.5 3.63672C26.2008 3.63672 33.25 9.19844 33.25 16.0563C33.25 22.9141 26.2008 28.4758 17.5 28.4758C16.543 28.4758 15.6078 28.4102 14.7 28.2789C13.7922 28.9187 8.54219 32.6047 8.04453 32.6758C8.04453 32.6758 7.84219 32.7523 7.66719 32.6539C7.49219 32.5555 7.525 32.2875 7.525 32.2875C7.57969 31.9266 8.89219 27.4094 9.13281 26.5727C4.69766 24.3797 1.75 20.4859 1.75 16.0508C1.75 9.19297 8.79922 3.63672 17.5 3.63672ZM6.46406 12.343C5.97187 12.343 5.57266 12.7422 5.57266 13.2344C5.57266 13.7266 5.97187 14.1258 6.46406 14.1258H7.88047V19.5234C7.88047 20.0047 8.29062 20.393 8.78828 20.393C9.28594 20.393 9.69609 20.0047 9.69609 19.5234V14.1258H11.1125C11.6047 14.1258 12.0039 13.7266 12.0039 13.2344C12.0039 12.7422 11.6047 12.343 11.1125 12.343H6.45859H6.46406ZM14.1641 12.343C13.5734 12.3539 13.1086 12.8023 12.9555 13.2398L10.7844 18.9602C10.5109 19.8188 10.7516 20.1359 10.9977 20.2508C11.1727 20.3328 11.375 20.3766 11.5773 20.3766C11.9547 20.3766 12.2445 20.2234 12.332 19.9773L12.7805 18.7961H15.5531L16.0016 19.9719C16.0891 20.218 16.3789 20.3711 16.7562 20.3711C16.9586 20.3711 17.1555 20.3273 17.3359 20.2453C17.5875 20.1305 17.8281 19.8133 17.5492 18.9547L15.3781 13.2398C15.225 12.8023 14.7602 12.3539 14.1641 12.343ZM24.057 12.343C23.5539 12.343 23.1492 12.7531 23.1492 13.2508V19.4688C23.1492 19.9719 23.5594 20.3766 24.057 20.3766C24.5547 20.3766 24.9648 19.9664 24.9648 19.4688V17.4891L25.282 17.1719L27.4094 19.9937C27.5844 20.2234 27.8469 20.3547 28.1367 20.3547C28.3336 20.3547 28.525 20.2945 28.6836 20.1742C28.875 20.0266 29.0008 19.8133 29.0336 19.5727C29.0664 19.332 29.0063 19.0914 28.8586 18.9L26.6219 15.9359L28.6945 13.8688C28.8367 13.7266 28.9078 13.5297 28.8969 13.3164C28.8859 13.1031 28.7875 12.9008 28.6289 12.7422C28.4594 12.5727 28.2297 12.4742 28.0055 12.4742C27.8086 12.4742 27.6336 12.5453 27.5023 12.6766L24.9703 15.2141V13.2617C24.9703 12.7586 24.5602 12.3539 24.0625 12.3539L24.057 12.343ZM19.0641 12.343C18.5555 12.343 18.1398 12.7531 18.1398 13.2508V19.4195C18.1398 19.8789 18.5281 20.2508 19.0094 20.2563H21.9242C22.4055 20.2563 22.7937 19.8789 22.7937 19.4195C22.7937 18.9602 22.4 18.5883 21.9242 18.5883H19.9937V13.2508C19.9937 12.7477 19.5781 12.343 19.0641 12.343ZM15.0719 17.1883H13.2562L14.1641 14.6125L15.0719 17.1883Z" fill="#1E1E1E"/>
</svg>
