<svg width="30" height="30" viewBox="0 0 30 30" fill="none" xmlns="http://www.w3.org/2000/svg">
<path d="M30 15C30 23.2843 23.2843 30 15 30C6.71573 30 0 23.2843 0 15C0 6.71573 6.71573 0 15 0C23.2843 0 30 6.71573 30 15Z" fill="#808080"/>
<path d="M16.6642 7.33334C16.9649 7.33334 17.26 7.41467 17.5182 7.56871C17.7764 7.72275 17.9881 7.94377 18.1309 8.20834L18.5359 8.95834C18.6787 9.22292 18.8905 9.44394 19.1487 9.59798C19.4069 9.75202 19.7019 9.83335 20.0026 9.83334H21.6667C22.1088 9.83334 22.5327 10.0089 22.8453 10.3215C23.1578 10.6341 23.3334 11.058 23.3334 11.5V19C23.3334 19.442 23.1578 19.866 22.8453 20.1785C22.5327 20.4911 22.1088 20.6667 21.6667 20.6667H8.33341C7.89139 20.6667 7.46746 20.4911 7.1549 20.1785C6.84234 19.866 6.66675 19.442 6.66675 19V11.5C6.66675 11.058 6.84234 10.6341 7.1549 10.3215C7.46746 10.0089 7.89139 9.83334 8.33341 9.83334H9.99758C10.2979 9.83336 10.5927 9.75221 10.8507 9.59848C11.1088 9.44475 11.3204 9.22415 11.4634 8.96001L11.8709 8.20668C12.0139 7.94253 12.2256 7.72194 12.4836 7.5682C12.7416 7.41447 13.0364 7.33333 13.3367 7.33334H16.6642Z" stroke="white" stroke-width="2" stroke-linecap="round" stroke-linejoin="round"/>
<path d="M15 17.3333C16.3807 17.3333 17.5 16.2141 17.5 14.8333C17.5 13.4526 16.3807 12.3333 15 12.3333C13.6193 12.3333 12.5 13.4526 12.5 14.8333C12.5 16.2141 13.6193 17.3333 15 17.3333Z" stroke="white" stroke-width="2" stroke-linecap="round" stroke-linejoin="round"/>
</svg>
