<svg width="25" height="25" viewBox="0 0 25 25" fill="none" xmlns="http://www.w3.org/2000/svg">
<path d="M10.7811 13.6289L8.59437 11.4422C8.40791 11.2557 8.17059 11.1625 7.88242 11.1625C7.59424 11.1625 7.35692 11.2557 7.17046 11.4422C6.98399 11.6286 6.89076 11.866 6.89076 12.1541C6.89076 12.4423 6.98399 12.6796 7.17046 12.8661L10.0691 15.7648C10.2726 15.9682 10.5099 16.0699 10.7811 16.0699C11.0523 16.0699 11.2896 15.9682 11.4931 15.7648L17.2396 10.0183C17.426 9.8318 17.5193 9.59448 17.5193 9.3063C17.5193 9.01813 17.426 8.78081 17.2396 8.59434C17.0531 8.40788 16.8158 8.31465 16.5276 8.31465C16.2395 8.31465 16.0021 8.40788 15.8157 8.59434L10.7811 13.6289ZM5.08544 21.3587C4.52604 21.3587 4.04733 21.1597 3.64931 20.7617C3.2513 20.3637 3.05195 19.8846 3.05127 19.3246V5.08541C3.05127 4.52601 3.25062 4.0473 3.64931 3.64928C4.04801 3.25127 4.52672 3.05192 5.08544 3.05124H19.3246C19.884 3.05124 20.363 3.25059 20.7617 3.64928C21.1604 4.04798 21.3594 4.52669 21.3588 5.08541V19.3246C21.3588 19.884 21.1598 20.363 20.7617 20.7617C20.3637 21.1604 19.8847 21.3594 19.3246 21.3587H5.08544Z" fill="#1E1E1E"/>
</svg>
