<svg width="14" height="14" viewBox="0 0 14 14" fill="none" xmlns="http://www.w3.org/2000/svg">
<path d="M2.25 0C1.65326 0 1.08097 0.237053 0.65901 0.65901C0.237053 1.08097 0 1.65326 0 2.25V8.25C0 8.84674 0.237053 9.41903 0.65901 9.84099C1.08097 10.2629 1.65326 10.5 2.25 10.5H3V12.5405C3 13.3935 4 13.855 4.649 13.3015L7.934 10.5H11.75C12.3467 10.5 12.919 10.2629 13.341 9.84099C13.7629 9.41903 14 8.84674 14 8.25V2.25C14 1.65326 13.7629 1.08097 13.341 0.65901C12.919 0.237053 12.3467 0 11.75 0H2.25Z" fill="#2B1B17"/>
</svg>
