<svg width="120" height="122" viewBox="0 0 120 122" fill="none" xmlns="http://www.w3.org/2000/svg">
<rect width="120" height="119.8" rx="59.9002" fill="#D9D9D9"/>
<mask id="mask0_30_23" style="mask-type:alpha" maskUnits="userSpaceOnUse" x="15" y="32" width="90" height="90">
<path fill-rule="evenodd" clip-rule="evenodd" d="M40 52.051C40 46.7555 42.1071 41.6769 45.8579 37.9324C49.6086 34.1879 54.6957 32.0843 60 32.0843C65.3043 32.0843 70.3914 34.1879 74.1421 37.9324C77.8929 41.6769 80 46.7555 80 52.051C80 57.3465 77.8929 62.4251 74.1421 66.1696C70.3914 69.9141 65.3043 72.0177 60 72.0177C54.6957 72.0177 49.6086 69.9141 45.8579 66.1696C42.1071 62.4251 40 57.3465 40 52.051ZM40 82.0011C33.3696 82.0011 27.0107 84.6306 22.3223 89.3112C17.6339 93.9919 15 100.34 15 106.96C15 110.931 16.5804 114.74 19.3934 117.548C22.2064 120.357 26.0218 121.935 30 121.935H90C93.9782 121.935 97.7936 120.357 100.607 117.548C103.42 114.74 105 110.931 105 106.96C105 100.34 102.366 93.9919 97.6777 89.3112C92.9893 84.6306 86.6304 82.0011 80 82.0011H40Z" fill="white"/>
</mask>
<g mask="url(#mask0_30_23)">
<rect width="120" height="119.8" rx="59.9002" fill="white"/>
</g>
</svg>
