<svg width="25" height="25" viewBox="0 0 25 25" fill="none" xmlns="http://www.w3.org/2000/svg">
<path d="M8.33325 4.16666C7.22818 4.16666 6.16838 4.60564 5.38697 5.38704C4.60557 6.16845 4.16659 7.22825 4.16659 8.33332C4.16659 9.43839 4.60557 10.4982 5.38697 11.2796C6.16838 12.061 7.22818 12.5 8.33325 12.5C9.43832 12.5 10.4981 12.061 11.2795 11.2796C12.0609 10.4982 12.4999 9.43839 12.4999 8.33332C12.4999 7.22825 12.0609 6.16845 11.2795 5.38704C10.4981 4.60564 9.43832 4.16666 8.33325 4.16666ZM9.37492 13.5417H7.29158C4.41659 13.5417 2.08325 15.875 2.08325 18.75V19.7917C2.08325 20.3646 2.552 20.8333 3.12492 20.8333H13.5416C14.1145 20.8333 14.5833 20.3646 14.5833 19.7917V18.75C14.5833 15.875 12.2499 13.5417 9.37492 13.5417ZM16.6666 13.1146L14.2812 10.7292L12.8124 12.1979L15.9374 15.3229C16.1458 15.5312 16.4062 15.625 16.677 15.625C16.9478 15.625 17.2083 15.5208 17.4166 15.3229L22.6249 10.1146L21.1562 8.64582L16.6874 13.1146H16.6666Z" fill="#2B1B17"/>
</svg>
