<svg width="25" height="25" viewBox="0 0 25 25" fill="none" xmlns="http://www.w3.org/2000/svg">
<path d="M12.5 1.875C13.1914 1.875 13.75 2.43359 13.75 3.125V3.83984C17.582 4.38672 20.6133 7.41797 21.1602 11.25H21.875C22.5664 11.25 23.125 11.8086 23.125 12.5C23.125 13.1914 22.5664 13.75 21.875 13.75H21.1602C20.6133 17.582 17.582 20.6133 13.75 21.1602V21.875C13.75 22.5664 13.1914 23.125 12.5 23.125C11.8086 23.125 11.25 22.5664 11.25 21.875V21.1602C7.41797 20.6133 4.38672 17.582 3.83984 13.75H3.125C2.43359 13.75 1.875 13.1914 1.875 12.5C1.875 11.8086 2.43359 11.25 3.125 11.25H3.83984C4.38672 7.41797 7.41797 4.38672 11.25 3.83984V3.125C11.25 2.43359 11.8086 1.875 12.5 1.875ZM6.25 12.5C6.25 15.9531 9.04688 18.75 12.5 18.75C15.9531 18.75 18.75 15.9531 18.75 12.5C18.75 9.04688 15.9531 6.25 12.5 6.25C9.04688 6.25 6.25 9.04688 6.25 12.5ZM12.5 8.75C14.5703 8.75 16.25 10.4297 16.25 12.5C16.25 14.5703 14.5703 16.25 12.5 16.25C10.4297 16.25 8.75 14.5703 8.75 12.5C8.75 10.4297 10.4297 8.75 12.5 8.75Z" fill="#2B1B17"/>
</svg>
