<svg width="18" height="16" viewBox="0 0 18 16" fill="none" xmlns="http://www.w3.org/2000/svg">
<path d="M2 3.5C2 1.56562 3.56562 0 5.5 0C7.43437 0 9 1.56562 9 3.5C9 5.43437 7.43437 7 5.5 7C3.56562 7 2 5.43437 2 3.5ZM0 14C0 10.9625 2.4625 8.5 5.5 8.5C8.5375 8.5 11 10.9625 11 14V14.1875C11 14.9125 10.4125 15.5 9.6875 15.5H1.3125C0.5875 15.5 0 14.9125 0 14.1875V14ZM13.5 1.5C15.1562 1.5 16.5 2.84375 16.5 4.5C16.5 6.15625 15.1562 7.5 13.5 7.5C11.8438 7.5 10.5 6.15625 10.5 4.5C10.5 2.84375 11.8438 1.5 13.5 1.5ZM13.5 9C15.9844 9 18 11.0156 18 13.5V14.2C18 14.9188 17.4188 15.5 16.7 15.5H12.175C12.3813 15.1094 12.5 14.6625 12.5 14.1875V14C12.5 12.3906 11.9563 10.9094 11.0469 9.72812C11.7531 9.26875 12.5969 9 13.5 9Z" fill="#1E1E1E"/>
</svg>
