<svg width="24" height="24" viewBox="0 0 24 24" fill="none" xmlns="http://www.w3.org/2000/svg">
<path d="M11.875 14.8438C13.5146 14.8438 14.8438 13.5146 14.8438 11.875C14.8438 10.2354 13.5146 8.90625 11.875 8.90625C10.2354 8.90625 8.90625 10.2354 8.90625 11.875C8.90625 13.5146 10.2354 14.8438 11.875 14.8438Z" fill="#2B1B17"/>
<path d="M22.9635 11.6227C22.0905 9.36466 20.5751 7.41194 18.6044 6.00585C16.6338 4.59975 14.2943 3.80191 11.8752 3.71094C9.45602 3.80191 7.11655 4.59975 5.14591 6.00585C3.17526 7.41194 1.65982 9.36466 0.786891 11.6227C0.727937 11.7857 0.727937 11.9643 0.786891 12.1273C1.65982 14.3853 3.17526 16.3381 5.14591 17.7442C7.11655 19.1503 9.45602 19.9481 11.8752 20.0391C14.2943 19.9481 16.6338 19.1503 18.6044 17.7442C20.5751 16.3381 22.0905 14.3853 22.9635 12.1273C23.0224 11.9643 23.0224 11.7857 22.9635 11.6227ZM11.8752 16.6992C10.921 16.6992 9.98832 16.4163 9.19498 15.8862C8.40164 15.3561 7.78331 14.6027 7.41818 13.7211C7.05304 12.8396 6.95751 11.8696 7.14365 10.9338C7.32979 9.99803 7.78926 9.13844 8.46393 8.46376C9.13861 7.78908 9.99821 7.32962 10.934 7.14348C11.8698 6.95733 12.8398 7.05287 13.7213 7.418C14.6028 7.78314 15.3563 8.40147 15.8864 9.19481C16.4165 9.98815 16.6994 10.9209 16.6994 11.875C16.6974 13.1539 16.1885 14.3798 15.2842 15.2841C14.38 16.1884 13.154 16.6973 11.8752 16.6992Z" fill="#2B1B17"/>
</svg>
