<svg width="35" height="35" viewBox="0 0 35 35" fill="none" xmlns="http://www.w3.org/2000/svg">
<path d="M14.5833 30.625H20.4167C20.4167 32.2292 19.1042 33.5417 17.5 33.5417C15.8958 33.5417 14.5833 32.2292 14.5833 30.625ZM30.625 27.7083V29.1667H4.375V27.7083L7.29167 24.7917V16.0417C7.29167 11.5208 10.2083 7.58333 14.5833 6.27083V5.83333C14.5833 4.22917 15.8958 2.91667 17.5 2.91667C19.1042 2.91667 20.4167 4.22917 20.4167 5.83333V6.27083C24.7917 7.58333 27.7083 11.5208 27.7083 16.0417V24.7917L30.625 27.7083ZM24.7917 16.0417C24.7917 11.9583 21.5833 8.75 17.5 8.75C13.4167 8.75 10.2083 11.9583 10.2083 16.0417V26.25H24.7917V16.0417Z" fill="#2B1B17"/>
</svg>
