<svg width="18" height="18" viewBox="0 0 18 18" fill="none" xmlns="http://www.w3.org/2000/svg">
<path fill-rule="evenodd" clip-rule="evenodd" d="M16.1595 3.83324C16.3704 4.04421 16.4889 4.3303 16.4889 4.62861C16.4889 4.92692 16.3704 5.21302 16.1595 5.42399L7.72727 13.8562C7.61584 13.9677 7.48354 14.0561 7.33793 14.1164C7.19232 14.1768 7.03625 14.2078 6.87865 14.2078C6.72104 14.2078 6.56497 14.1768 6.41936 14.1164C6.27375 14.0561 6.14145 13.9677 6.03002 13.8562L1.84052 9.66749C1.73307 9.56371 1.64737 9.43957 1.58841 9.30232C1.52945 9.16506 1.49841 9.01744 1.49711 8.86806C1.49581 8.71869 1.52428 8.57055 1.58085 8.43229C1.63741 8.29403 1.72095 8.16842 1.82658 8.06279C1.9322 7.95716 2.05781 7.87363 2.19607 7.81706C2.33433 7.7605 2.48247 7.73203 2.63185 7.73333C2.78122 7.73463 2.92885 7.76566 3.0661 7.82462C3.20335 7.88358 3.32749 7.96929 3.43127 8.07674L6.87827 11.5237L14.568 3.83324C14.6725 3.7287 14.7965 3.64577 14.9331 3.58918C15.0696 3.5326 15.216 3.50348 15.3638 3.50348C15.5116 3.50348 15.6579 3.5326 15.7945 3.58918C15.931 3.64577 16.055 3.7287 16.1595 3.83324Z" fill="#2B1B17"/>
</svg>
