<svg width="35" height="35" viewBox="0 0 35 35" fill="none" xmlns="http://www.w3.org/2000/svg">
<path d="M29.75 6.75C30.0484 6.75 30.3349 6.86812 30.5459 7.0791C30.7569 7.29008 30.875 7.57663 30.875 7.875V27.125C30.875 27.4234 30.7569 27.7099 30.5459 27.9209C30.3349 28.1319 30.0484 28.25 29.75 28.25H5.25C4.95163 28.25 4.66508 28.1319 4.4541 27.9209C4.24312 27.7099 4.125 27.4234 4.125 27.125V7.875C4.125 7.57663 4.24312 7.29008 4.4541 7.0791C4.66508 6.86812 4.95163 6.75 5.25 6.75H29.75ZM6.375 26H28.625V9H6.375V26Z" fill="#2B1B17" stroke="#2B1B17" stroke-width="0.5"/>
<path d="M29.7505 6.75L29.9214 6.76367C30.0902 6.78995 30.2518 6.85441 30.3931 6.95312C30.5813 7.08475 30.7248 7.27079 30.8042 7.48633C30.8836 7.70195 30.8954 7.93686 30.8374 8.15918C30.7794 8.38152 30.6546 8.58113 30.48 8.73047H30.479L18.1509 19.2305C17.9468 19.4045 17.6866 19.4994 17.4185 19.499C17.1841 19.4986 16.9565 19.4252 16.7671 19.29L16.688 19.2275L4.51416 8.72754V8.72656C4.34042 8.57673 4.21591 8.37746 4.15869 8.15527C4.10148 7.9328 4.11375 7.69773 4.19385 7.48242C4.27399 7.26711 4.41817 7.08116 4.60693 6.9502C4.79579 6.8192 5.02065 6.7496 5.25049 6.75H29.7505ZM17.4253 16.8916L26.6938 9H8.27686L17.4253 16.8916Z" fill="#2B1B17" stroke="#2B1B17" stroke-width="0.5"/>
</svg>
