<svg width="35" height="35" viewBox="0 0 35 35" fill="none" xmlns="http://www.w3.org/2000/svg">
<path d="M13.3801 15.7865C12.2378 14.6441 11.6666 13.2708 11.6666 11.6667C11.6666 10.0625 12.2378 8.68924 13.3801 7.54687C14.5225 6.40451 15.8958 5.83333 17.4999 5.83333C19.1041 5.83333 20.4773 6.40451 21.6197 7.54687C22.7621 8.68924 23.3333 10.0625 23.3333 11.6667C23.3333 13.2708 22.7621 14.6441 21.6197 15.7865C20.4773 16.9288 19.1041 17.5 17.4999 17.5C15.8958 17.5 14.5225 16.9288 13.3801 15.7865ZM5.83325 29.1667V25.0833C5.83325 24.2569 6.04617 23.4976 6.472 22.8054C6.89784 22.1132 7.4627 21.5843 8.16659 21.2187C9.67353 20.4653 11.2048 19.9004 12.7603 19.5242C14.3159 19.1479 15.8958 18.9593 17.4999 18.9583C19.1041 18.9574 20.6839 19.146 22.2395 19.5242C23.7951 19.9024 25.3263 20.4672 26.8333 21.2187C27.5381 21.5833 28.1035 22.1122 28.5293 22.8054C28.9551 23.4986 29.1676 24.2579 29.1666 25.0833V29.1667H5.83325ZM8.74992 26.25H26.2499V25.0833C26.2499 24.816 26.1833 24.5729 26.0501 24.3542C25.9169 24.1354 25.7405 23.9653 25.5208 23.8438C24.2083 23.1875 22.8836 22.6956 21.5468 22.3679C20.21 22.0403 18.861 21.876 17.4999 21.875C16.1388 21.874 14.7899 22.0383 13.453 22.3679C12.1162 22.6975 10.7916 23.1894 9.47909 23.8438C9.26034 23.9653 9.08388 24.1354 8.94971 24.3542C8.81554 24.5729 8.74895 24.816 8.74992 25.0833V26.25ZM19.5605 13.7273C20.1312 13.1556 20.4166 12.4687 20.4166 11.6667C20.4166 10.8646 20.1312 10.1782 19.5605 9.6075C18.9899 9.0368 18.303 8.75097 17.4999 8.75C16.6969 8.74903 16.0105 9.03486 15.4408 9.6075C14.871 10.1801 14.5852 10.8665 14.5833 11.6667C14.5813 12.4668 14.8671 13.1537 15.4408 13.7273C16.0144 14.3009 16.7008 14.5862 17.4999 14.5833C18.2991 14.5804 18.986 14.2951 19.5605 13.7273Z" fill="#2B1B17"/>
</svg>
