<svg width="35" height="35" viewBox="0 0 35 35" fill="none" xmlns="http://www.w3.org/2000/svg">
<path d="M29.0209 18.4625C28.7871 18.1964 28.6581 17.8542 28.6581 17.5C28.6581 17.1458 28.7871 16.8036 29.0209 16.5375L30.8876 14.4375C31.0932 14.2081 31.221 13.9194 31.2524 13.6128C31.2839 13.3063 31.2174 12.9977 31.0626 12.7313L28.1459 7.68542C27.9926 7.4193 27.7593 7.20836 27.4791 7.08267C27.1989 6.95697 26.8861 6.92294 26.5855 6.98542L23.8438 7.53958C23.4949 7.61167 23.1318 7.55357 22.8228 7.37625C22.5138 7.19893 22.2805 6.91466 22.1667 6.57708L21.2771 3.90833C21.1793 3.61868 20.9929 3.3671 20.7443 3.18915C20.4957 3.0112 20.1975 2.91588 19.8917 2.91667H14.0584C13.7404 2.90007 13.4257 2.98802 13.1623 3.16708C12.899 3.34615 12.7015 3.60649 12.6001 3.90833L11.7834 6.57708C11.6696 6.91466 11.4363 7.19893 11.1273 7.37625C10.8183 7.55357 10.4552 7.61167 10.1063 7.53958L7.29172 6.98542C7.00669 6.94514 6.71611 6.99012 6.4566 7.11468C6.19709 7.23925 5.98024 7.43783 5.83339 7.68542L2.91672 12.7313C2.75799 12.9947 2.68663 13.3016 2.71282 13.608C2.73901 13.9145 2.86142 14.2048 3.06255 14.4375L4.91464 16.5375C5.14843 16.8036 5.27737 17.1458 5.27737 17.5C5.27737 17.8542 5.14843 18.1964 4.91464 18.4625L3.06255 20.5625C2.86142 20.7952 2.73901 21.0855 2.71282 21.392C2.68663 21.6984 2.75799 22.0053 2.91672 22.2688L5.83339 27.3146C5.98665 27.5807 6.22002 27.7916 6.50021 27.9173C6.78041 28.043 7.09313 28.0771 7.3938 28.0146L10.1355 27.4604C10.4843 27.3883 10.8475 27.4464 11.1565 27.6238C11.4654 27.8011 11.6988 28.0853 11.8126 28.4229L12.7021 31.0917C12.8036 31.3935 13.0011 31.6539 13.2644 31.8329C13.5278 32.012 13.8425 32.0999 14.1605 32.0833H19.9938C20.2995 32.0841 20.5978 31.9888 20.8464 31.8109C21.095 31.6329 21.2814 31.3813 21.3792 31.0917L22.2688 28.4229C22.3826 28.0853 22.6159 27.8011 22.9249 27.6238C23.2338 27.4464 23.597 27.3883 23.9459 27.4604L26.6876 28.0146C26.9882 28.0771 27.301 28.043 27.5811 27.9173C27.8613 27.7916 28.0947 27.5807 28.248 27.3146L31.1646 22.2688C31.3195 22.0023 31.3859 21.6937 31.3545 21.3872C31.3231 21.0806 31.1953 20.7919 30.9896 20.5625L29.0209 18.4625ZM26.848 20.4167L28.0146 21.7292L26.148 24.9667L24.4271 24.6167C23.3768 24.402 22.2842 24.5804 21.3568 25.118C20.4293 25.6557 19.7315 26.5152 19.3959 27.5333L18.8417 29.1667H15.1084L14.5834 27.5042C14.2478 26.486 13.55 25.6265 12.6225 25.0889C11.6951 24.5512 10.6025 24.3728 9.55214 24.5875L7.8313 24.9375L5.93547 21.7146L7.10214 20.4021C7.81957 19.6 8.2162 18.5616 8.2162 17.4854C8.2162 16.4093 7.81957 15.3709 7.10214 14.5688L5.93547 13.2563L7.80214 10.0479L9.52297 10.3979C10.5733 10.6126 11.6659 10.4342 12.5934 9.89654C13.5208 9.35888 14.2186 8.4994 14.5542 7.48125L15.1084 5.83333H18.8417L19.3959 7.49583C19.7315 8.51398 20.4293 9.37346 21.3568 9.91112C22.2842 10.4488 23.3768 10.6272 24.4271 10.4125L26.148 10.0625L28.0146 13.3L26.848 14.6125C26.1386 15.4128 25.7469 16.4452 25.7469 17.5146C25.7469 18.584 26.1386 19.6164 26.848 20.4167ZM16.9751 11.6667C15.8213 11.6667 14.6935 12.0088 13.7342 12.6498C12.7749 13.2907 12.0273 14.2018 11.5858 15.2677C11.1442 16.3336 11.0287 17.5065 11.2538 18.638C11.4789 19.7696 12.0345 20.809 12.8503 21.6248C13.6661 22.4406 14.7055 22.9962 15.837 23.2212C16.9686 23.4463 18.1415 23.3308 19.2074 22.8893C20.2733 22.4478 21.1843 21.7001 21.8253 20.7408C22.4663 19.7815 22.8084 18.6537 22.8084 17.5C22.8084 15.9529 22.1938 14.4692 21.0998 13.3752C20.0059 12.2812 18.5221 11.6667 16.9751 11.6667ZM16.9751 20.4167C16.3982 20.4167 15.8343 20.2456 15.3546 19.9251C14.875 19.6046 14.5012 19.1491 14.2804 18.6162C14.0596 18.0832 14.0019 17.4968 14.1144 16.931C14.227 16.3652 14.5048 15.8455 14.9127 15.4376C15.3206 15.0297 15.8403 14.7519 16.406 14.6394C16.9718 14.5268 17.5583 14.5846 18.0912 14.8054C18.6242 15.0261 19.0797 15.3999 19.4002 15.8796C19.7207 16.3592 19.8917 16.9231 19.8917 17.5C19.8917 18.2735 19.5844 19.0154 19.0374 19.5624C18.4905 20.1094 17.7486 20.4167 16.9751 20.4167Z" fill="#2B1B17"/>
</svg>
